<mxfile host="app.diagrams.net" modified="2023-08-16T08:58:31.766Z" agent="Mozilla/5.0 (Windows NT 10.0; Win64; x64) AppleWebKit/537.36 (KHTML, like Gecko) Chrome/115.0.0.0 Safari/537.36 OPR/101.0.0.0" etag="K94CffO_IrN9nMRnVwx7" version="21.6.8" type="github">
  <diagram id="C5RBs43oDa-KdzZeNtuy" name="Page-1">
    <mxGraphModel dx="1054" dy="555" grid="1" gridSize="10" guides="1" tooltips="1" connect="1" arrows="1" fold="1" page="1" pageScale="1" pageWidth="827" pageHeight="1169" math="0" shadow="0">
      <root>
        <mxCell id="WIyWlLk6GJQsqaUBKTNV-0" />
        <mxCell id="WIyWlLk6GJQsqaUBKTNV-1" parent="WIyWlLk6GJQsqaUBKTNV-0" />
        <mxCell id="vyqU0hkKjeVzbAJWqk5_-0" value="System" style="swimlane;whiteSpace=wrap;html=1;" vertex="1" parent="WIyWlLk6GJQsqaUBKTNV-1">
          <mxGeometry x="420" y="80" width="407" height="510" as="geometry" />
        </mxCell>
        <mxCell id="vyqU0hkKjeVzbAJWqk5_-17" value="" style="edgeStyle=orthogonalEdgeStyle;rounded=0;orthogonalLoop=1;jettySize=auto;html=1;" edge="1" parent="vyqU0hkKjeVzbAJWqk5_-0" source="vyqU0hkKjeVzbAJWqk5_-10" target="vyqU0hkKjeVzbAJWqk5_-15">
          <mxGeometry relative="1" as="geometry">
            <Array as="points">
              <mxPoint x="205" y="210" />
              <mxPoint x="205" y="210" />
            </Array>
          </mxGeometry>
        </mxCell>
        <mxCell id="vyqU0hkKjeVzbAJWqk5_-10" value="Verify info, check if the unique constraints are met?" style="strokeWidth=1;html=1;shape=mxgraph.flowchart.decision;whiteSpace=wrap;" vertex="1" parent="vyqU0hkKjeVzbAJWqk5_-0">
          <mxGeometry x="105" y="40" width="190" height="120" as="geometry" />
        </mxCell>
        <mxCell id="vyqU0hkKjeVzbAJWqk5_-15" value="Send verification code via email" style="rounded=1;whiteSpace=wrap;html=1;absoluteArcSize=1;arcSize=14;strokeWidth=1;" vertex="1" parent="vyqU0hkKjeVzbAJWqk5_-0">
          <mxGeometry x="120" y="200" width="160" height="40" as="geometry" />
        </mxCell>
        <mxCell id="vyqU0hkKjeVzbAJWqk5_-26" value="Verify verification code?" style="strokeWidth=1;html=1;shape=mxgraph.flowchart.decision;whiteSpace=wrap;" vertex="1" parent="vyqU0hkKjeVzbAJWqk5_-0">
          <mxGeometry x="130" y="250" width="150" height="80" as="geometry" />
        </mxCell>
        <mxCell id="vyqU0hkKjeVzbAJWqk5_-28" value="" style="html=1;points=[];perimeter=orthogonalPerimeter;fillColor=strokeColor;rotation=90;" vertex="1" parent="vyqU0hkKjeVzbAJWqk5_-0">
          <mxGeometry x="360" y="370" width="10" height="80" as="geometry" />
        </mxCell>
        <mxCell id="vyqU0hkKjeVzbAJWqk5_-30" value="" style="edgeStyle=orthogonalEdgeStyle;rounded=0;orthogonalLoop=1;jettySize=auto;html=1;entryX=0.1;entryY=0.3;entryDx=0;entryDy=0;entryPerimeter=0;" edge="1" parent="vyqU0hkKjeVzbAJWqk5_-0" source="vyqU0hkKjeVzbAJWqk5_-10" target="vyqU0hkKjeVzbAJWqk5_-28">
          <mxGeometry relative="1" as="geometry">
            <mxPoint x="380" y="390" as="targetPoint" />
            <Array as="points">
              <mxPoint x="380" y="100" />
            </Array>
          </mxGeometry>
        </mxCell>
        <mxCell id="vyqU0hkKjeVzbAJWqk5_-31" value="" style="html=1;verticalAlign=bottom;labelBackgroundColor=none;endArrow=block;endFill=1;rounded=0;entryX=0.1;entryY=0.438;entryDx=0;entryDy=0;entryPerimeter=0;" edge="1" parent="vyqU0hkKjeVzbAJWqk5_-0" source="vyqU0hkKjeVzbAJWqk5_-26" target="vyqU0hkKjeVzbAJWqk5_-28">
          <mxGeometry width="160" relative="1" as="geometry">
            <mxPoint x="310" y="290" as="sourcePoint" />
            <mxPoint x="360" y="360" as="targetPoint" />
            <Array as="points">
              <mxPoint x="370" y="290" />
            </Array>
          </mxGeometry>
        </mxCell>
        <mxCell id="vyqU0hkKjeVzbAJWqk5_-33" value="NO" style="text;html=1;align=center;verticalAlign=middle;resizable=0;points=[];autosize=1;strokeColor=none;fillColor=none;" vertex="1" parent="vyqU0hkKjeVzbAJWqk5_-0">
          <mxGeometry x="330" y="260" width="40" height="30" as="geometry" />
        </mxCell>
        <mxCell id="vyqU0hkKjeVzbAJWqk5_-34" value="Complete registration" style="rounded=1;whiteSpace=wrap;html=1;absoluteArcSize=1;arcSize=14;strokeWidth=1;" vertex="1" parent="vyqU0hkKjeVzbAJWqk5_-0">
          <mxGeometry x="155" y="360" width="100" height="40" as="geometry" />
        </mxCell>
        <mxCell id="vyqU0hkKjeVzbAJWqk5_-35" value="" style="html=1;verticalAlign=bottom;labelBackgroundColor=none;endArrow=block;endFill=1;rounded=0;" edge="1" parent="vyqU0hkKjeVzbAJWqk5_-0" source="vyqU0hkKjeVzbAJWqk5_-26" target="vyqU0hkKjeVzbAJWqk5_-34">
          <mxGeometry width="160" relative="1" as="geometry">
            <mxPoint x="50" y="490" as="sourcePoint" />
            <mxPoint x="210" y="490" as="targetPoint" />
          </mxGeometry>
        </mxCell>
        <mxCell id="vyqU0hkKjeVzbAJWqk5_-36" value="YES" style="text;html=1;align=center;verticalAlign=middle;resizable=0;points=[];autosize=1;strokeColor=none;fillColor=none;" vertex="1" parent="vyqU0hkKjeVzbAJWqk5_-0">
          <mxGeometry x="205" y="330" width="50" height="30" as="geometry" />
        </mxCell>
        <mxCell id="vyqU0hkKjeVzbAJWqk5_-2" value="Geek" style="swimlane;whiteSpace=wrap;html=1;startSize=23;strokeWidth=1;" vertex="1" parent="WIyWlLk6GJQsqaUBKTNV-1">
          <mxGeometry y="80" width="420" height="510" as="geometry" />
        </mxCell>
        <mxCell id="vyqU0hkKjeVzbAJWqk5_-7" value="" style="ellipse;fillColor=strokeColor;html=1;" vertex="1" parent="vyqU0hkKjeVzbAJWqk5_-2">
          <mxGeometry x="190" y="30" width="20" height="20" as="geometry" />
        </mxCell>
        <mxCell id="vyqU0hkKjeVzbAJWqk5_-8" value="Register by entering personal information and submit" style="rounded=1;whiteSpace=wrap;html=1;absoluteArcSize=1;arcSize=14;strokeWidth=1;" vertex="1" parent="vyqU0hkKjeVzbAJWqk5_-2">
          <mxGeometry x="115" y="80" width="170" height="40" as="geometry" />
        </mxCell>
        <mxCell id="vyqU0hkKjeVzbAJWqk5_-11" value="" style="ellipse;html=1;shape=endState;fillColor=strokeColor;" vertex="1" parent="vyqU0hkKjeVzbAJWqk5_-2">
          <mxGeometry x="190" y="465" width="30" height="30" as="geometry" />
        </mxCell>
        <mxCell id="vyqU0hkKjeVzbAJWqk5_-16" style="edgeStyle=orthogonalEdgeStyle;rounded=0;orthogonalLoop=1;jettySize=auto;html=1;exitX=0.5;exitY=1;exitDx=0;exitDy=0;" edge="1" parent="vyqU0hkKjeVzbAJWqk5_-2" source="vyqU0hkKjeVzbAJWqk5_-8" target="vyqU0hkKjeVzbAJWqk5_-8">
          <mxGeometry relative="1" as="geometry" />
        </mxCell>
        <mxCell id="vyqU0hkKjeVzbAJWqk5_-22" value="Confirm Verification code from email&amp;nbsp;" style="rounded=1;whiteSpace=wrap;html=1;absoluteArcSize=1;arcSize=14;strokeWidth=1;" vertex="1" parent="vyqU0hkKjeVzbAJWqk5_-2">
          <mxGeometry x="125" y="200" width="160" height="40" as="geometry" />
        </mxCell>
        <mxCell id="vyqU0hkKjeVzbAJWqk5_-37" value="Complete registration" style="rounded=1;whiteSpace=wrap;html=1;absoluteArcSize=1;arcSize=14;strokeWidth=1;" vertex="1" parent="vyqU0hkKjeVzbAJWqk5_-2">
          <mxGeometry x="155" y="360" width="100" height="40" as="geometry" />
        </mxCell>
        <mxCell id="vyqU0hkKjeVzbAJWqk5_-40" value="" style="html=1;verticalAlign=bottom;labelBackgroundColor=none;endArrow=block;endFill=1;rounded=0;" edge="1" parent="vyqU0hkKjeVzbAJWqk5_-2" source="vyqU0hkKjeVzbAJWqk5_-37" target="vyqU0hkKjeVzbAJWqk5_-11">
          <mxGeometry width="160" relative="1" as="geometry">
            <mxPoint x="200" y="460" as="sourcePoint" />
            <mxPoint x="360" y="460" as="targetPoint" />
          </mxGeometry>
        </mxCell>
        <mxCell id="vyqU0hkKjeVzbAJWqk5_-41" value="" style="html=1;verticalAlign=bottom;labelBackgroundColor=none;endArrow=block;endFill=1;rounded=0;" edge="1" parent="vyqU0hkKjeVzbAJWqk5_-2" source="vyqU0hkKjeVzbAJWqk5_-7" target="vyqU0hkKjeVzbAJWqk5_-8">
          <mxGeometry width="160" relative="1" as="geometry">
            <mxPoint x="40" y="330" as="sourcePoint" />
            <mxPoint x="200" y="330" as="targetPoint" />
          </mxGeometry>
        </mxCell>
        <mxCell id="vyqU0hkKjeVzbAJWqk5_-14" value="NO" style="text;html=1;align=center;verticalAlign=middle;resizable=0;points=[];autosize=1;strokeColor=none;fillColor=none;" vertex="1" parent="WIyWlLk6GJQsqaUBKTNV-1">
          <mxGeometry x="760" y="148" width="40" height="30" as="geometry" />
        </mxCell>
        <mxCell id="vyqU0hkKjeVzbAJWqk5_-18" value="YES" style="text;html=1;align=center;verticalAlign=middle;resizable=0;points=[];autosize=1;strokeColor=none;fillColor=none;" vertex="1" parent="WIyWlLk6GJQsqaUBKTNV-1">
          <mxGeometry x="615" y="238" width="50" height="30" as="geometry" />
        </mxCell>
        <mxCell id="vyqU0hkKjeVzbAJWqk5_-21" value="" style="html=1;verticalAlign=bottom;labelBackgroundColor=none;endArrow=block;endFill=1;rounded=0;" edge="1" parent="WIyWlLk6GJQsqaUBKTNV-1" source="vyqU0hkKjeVzbAJWqk5_-8" target="vyqU0hkKjeVzbAJWqk5_-10">
          <mxGeometry width="160" relative="1" as="geometry">
            <mxPoint x="330" y="190" as="sourcePoint" />
            <mxPoint x="490" y="190" as="targetPoint" />
          </mxGeometry>
        </mxCell>
        <mxCell id="vyqU0hkKjeVzbAJWqk5_-23" value="" style="html=1;verticalAlign=bottom;labelBackgroundColor=none;endArrow=block;endFill=1;rounded=0;" edge="1" parent="WIyWlLk6GJQsqaUBKTNV-1" source="vyqU0hkKjeVzbAJWqk5_-15" target="vyqU0hkKjeVzbAJWqk5_-22">
          <mxGeometry width="160" relative="1" as="geometry">
            <mxPoint x="200" y="400" as="sourcePoint" />
            <mxPoint x="360" y="400" as="targetPoint" />
          </mxGeometry>
        </mxCell>
        <mxCell id="vyqU0hkKjeVzbAJWqk5_-24" value="" style="html=1;verticalAlign=bottom;labelBackgroundColor=none;endArrow=block;endFill=1;rounded=0;" edge="1" parent="WIyWlLk6GJQsqaUBKTNV-1" source="vyqU0hkKjeVzbAJWqk5_-22" target="vyqU0hkKjeVzbAJWqk5_-26">
          <mxGeometry width="160" relative="1" as="geometry">
            <mxPoint x="170" y="370" as="sourcePoint" />
            <mxPoint x="360" y="390" as="targetPoint" />
            <Array as="points">
              <mxPoint x="205" y="370" />
            </Array>
          </mxGeometry>
        </mxCell>
        <mxCell id="vyqU0hkKjeVzbAJWqk5_-32" value="" style="html=1;verticalAlign=bottom;labelBackgroundColor=none;endArrow=block;endFill=1;rounded=0;" edge="1" parent="WIyWlLk6GJQsqaUBKTNV-1" source="vyqU0hkKjeVzbAJWqk5_-28" target="vyqU0hkKjeVzbAJWqk5_-11">
          <mxGeometry width="160" relative="1" as="geometry">
            <mxPoint x="620" y="570" as="sourcePoint" />
            <mxPoint x="790" y="630" as="targetPoint" />
            <Array as="points">
              <mxPoint x="800" y="560" />
            </Array>
          </mxGeometry>
        </mxCell>
        <mxCell id="vyqU0hkKjeVzbAJWqk5_-38" value="" style="html=1;verticalAlign=bottom;labelBackgroundColor=none;endArrow=block;endFill=1;rounded=0;" edge="1" parent="WIyWlLk6GJQsqaUBKTNV-1" source="vyqU0hkKjeVzbAJWqk5_-34" target="vyqU0hkKjeVzbAJWqk5_-37">
          <mxGeometry width="160" relative="1" as="geometry">
            <mxPoint x="480" y="530" as="sourcePoint" />
            <mxPoint x="640" y="530" as="targetPoint" />
          </mxGeometry>
        </mxCell>
      </root>
    </mxGraphModel>
  </diagram>
</mxfile>
